<?xml version="1.0" encoding="UTF-8"?>
<svg width="1111px" height="539px" viewBox="0 0 1111 539" version="1.1" xmlns="http://www.w3.org/2000/svg" xmlns:xlink="http://www.w3.org/1999/xlink">
    <!-- Generator: Sketch 42 (36781) - http://www.bohemiancoding.com/sketch -->
    <title>Logo_Stichting_Human_Focus_zw_red_vector</title>
    <desc>Created with Sketch.</desc>
    <defs>
        <polygon id="path-1" points="227.106 127.94 0.66 127.94 0.66 0.719 227.106 0.719"></polygon>
    </defs>
    <g id="Page-1" stroke="none" stroke-width="1" fill="none" fill-rule="evenodd">
        <g id="Logo_Stichting_Human_Focus_zw_red_vector">
            <path d="M189.706,94.067 C189.706,90.167 187.483,87.946 183.597,87.946 L173.016,87.946 L173.016,47.616 L217.511,47.616 C231.7,47.616 237.824,53.736 237.824,67.92 L237.824,110.475 C237.824,117.71 237.276,122.71 237.276,122.71 L237.824,122.71 C245.889,108.523 262.576,99.909 281.485,99.909 C310.42,99.909 332.942,113.256 332.942,153.589 L332.942,200.039 C332.942,203.928 335.168,206.151 339.059,206.151 L349.636,206.151 L349.636,246.485 L305.126,246.485 C290.948,246.485 284.824,240.364 284.824,226.182 L284.824,162.489 C284.824,149.135 279.54,143.573 268.967,143.573 C254.24,143.573 244.497,152.195 240.329,164.716 C238.38,170.271 237.824,176.395 237.824,183.069 L237.824,246.485 L189.706,246.485 L189.706,94.067" id="Fill-1" fill="#1A1918"></path>
            <path d="M359.083,149.692 C359.083,145.799 356.86,143.573 352.97,143.573 L342.397,143.573 L342.397,103.244 L386.899,103.244 C401.077,103.244 407.205,109.364 407.205,123.545 L407.205,187.237 C407.205,200.589 412.484,206.151 422.502,206.151 C443.082,206.151 452.803,188.071 452.803,166.658 L452.803,103.244 L500.934,103.244 L500.934,200.039 C500.934,203.928 503.153,206.151 507.046,206.151 L517.623,206.151 L517.623,246.485 L475.055,246.485 C461.995,246.485 454.755,240.081 454.755,230.35 L454.755,228.404 C454.755,227.015 455.034,225.071 455.034,225.071 L454.474,225.071 C446.694,240.364 429.171,249.815 409.983,249.815 C381.604,249.815 359.083,236.472 359.083,196.139 L359.083,149.692" id="Fill-2" fill="#1A1918"></path>
            <path d="M533.731,149.692 C533.731,145.799 531.501,143.573 527.607,143.573 L517.048,143.573 L517.048,103.244 L560.155,103.244 C573.229,103.244 580.175,109.643 580.175,119.377 L580.175,121.325 C580.175,122.71 579.899,124.657 579.899,124.657 L580.461,124.657 C587.121,114.648 599.921,99.909 622.452,99.909 C640.53,99.909 654.995,107.969 662.519,124.101 L663.07,124.101 C670.574,112.146 687.538,99.909 708.959,99.909 C735.108,99.909 755.403,114.093 755.403,153.589 L755.403,200.039 C755.403,203.928 757.628,206.151 761.526,206.151 L772.096,206.151 L772.096,246.485 L727.584,246.485 C713.413,246.485 707.289,240.364 707.289,226.182 L707.289,161.65 C707.289,151.08 705.335,143.573 696.167,143.573 C681.707,143.573 673.352,155.255 670.291,171.114 C669.179,176.114 668.632,181.398 668.632,187.237 L668.632,246.485 L620.501,246.485 L620.501,161.65 C620.501,151.08 618.561,143.573 609.396,143.573 C595.195,143.573 587.121,154.699 583.794,169.993 C582.683,175.28 581.845,181.124 581.845,187.237 L581.845,246.485 L533.731,246.485 L533.731,149.692" id="Fill-3" fill="#1A1918"></path>
            <path d="M841.062,213.106 C853.568,213.106 864.703,199.484 864.703,187.793 L864.703,185.572 L860.257,185.572 C844.953,185.572 827.427,189.748 827.427,201.145 C827.427,207.826 831.599,213.106 841.062,213.106 Z M862.194,156.367 L864.138,156.367 L864.138,154.699 C864.138,141.07 857.751,136.065 845.786,136.065 C839.667,136.065 833.259,137.457 833.259,143.017 L833.259,149.414 L788.77,149.414 L788.77,133.558 C788.77,101.577 829.376,99.909 845.786,99.909 C895.855,99.909 912.261,125.491 912.261,158.313 L912.261,200.039 C912.261,203.928 914.484,206.151 918.377,206.151 L928.956,206.151 L928.956,246.485 L887.223,246.485 C873.317,246.485 868.306,237.863 868.306,231.462 L868.306,228.959 L867.755,228.959 C867.755,228.959 857.751,249.815 827.705,249.815 C801.001,249.815 779.032,232.015 779.032,203.65 C779.032,161.093 839.942,156.367 862.194,156.367 L862.194,156.367 Z" id="Fill-4" fill="#1A1918"></path>
            <path d="M938.955,149.692 C938.955,145.799 936.731,143.573 932.84,143.573 L922.263,143.573 L922.263,103.244 L965.098,103.244 C978.173,103.244 985.134,109.643 985.134,119.377 L985.134,121.325 C985.134,122.71 984.857,124.657 984.857,124.657 L985.417,124.657 C992.077,113.537 1005.43,99.909 1030.73,99.909 C1059.67,99.909 1082.19,113.256 1082.19,153.589 L1082.19,200.039 C1082.19,203.928 1084.42,206.151 1088.31,206.151 L1098.88,206.151 L1098.88,246.485 L1054.38,246.485 C1040.2,246.485 1034.07,240.364 1034.07,226.182 L1034.07,162.489 C1034.07,149.135 1028.8,143.573 1018.22,143.573 C1003.21,143.573 994.026,151.915 989.855,164.16 C987.909,169.715 987.083,176.114 987.083,183.069 L987.083,246.485 L938.955,246.485 L938.955,149.692" id="Fill-5" fill="#1A1918"></path>
            <path d="M615.361,349.305 C615.361,342.566 611.517,338.716 604.79,338.716 L586.506,338.716 L586.506,268.972 L663.469,268.972 C687.997,268.972 698.583,279.553 698.583,304.088 L698.583,414.234 C698.583,437.322 707.711,446.943 725.034,446.943 C760.629,446.943 777.462,415.669 777.462,378.641 L777.462,268.972 L860.68,268.972 L860.68,436.365 C860.68,443.094 864.533,446.943 871.258,446.943 L889.524,446.943 L889.524,516.687 L815.935,516.687 C793.341,516.687 780.819,505.619 780.819,488.794 L780.819,485.427 C780.819,483.018 781.314,479.647 781.314,479.647 L780.35,479.647 C766.884,506.107 736.581,522.455 703.399,522.455 C654.326,522.455 615.361,499.376 615.361,429.629 L615.361,349.305" id="Fill-6" fill="#1A1918"></path>
            <path d="M936.191,423.858 C936.191,423.858 970.82,459.442 1008.81,459.442 C1020.84,459.442 1027.57,456.083 1027.57,447.424 C1027.57,426.737 903.482,420.009 903.482,339.684 C903.482,286.289 953.015,263.199 1005.45,263.199 C1045.85,263.199 1101.65,274.746 1101.65,319.479 L1101.65,348.818 L1029.5,348.818 L1029.5,336.793 C1029.5,330.058 1018.93,325.253 1006.89,325.253 C995.351,325.253 984.77,329.098 984.77,336.793 C984.77,362.283 1110.31,358.922 1110.31,442.134 C1110.31,492.154 1066.54,522.455 1008.81,522.455 C937.638,522.455 899.14,477.245 899.14,477.245 L936.191,423.858" id="Fill-7" fill="#1A1918"></path>
            <path d="M257.906,67.887 C257.906,67.887 265.036,76.807 276.094,76.807 C281.681,76.807 286.562,74.309 286.562,69.084 C286.562,58.264 253.753,59.452 253.753,40.074 C253.753,28.541 263.853,23.19 276.094,23.19 C283.348,23.19 295.829,25.691 295.829,34.842 L295.829,40.548 L285.488,40.548 L285.488,37.581 C285.488,34.01 280.141,32.47 276.447,32.47 C269.677,32.47 265.272,34.842 265.272,39.595 C265.272,51.012 298.081,48.519 298.081,68.604 C298.081,79.306 288.575,86.198 275.974,86.198 C259.925,86.198 251.958,75.621 251.958,75.621 L257.906,67.887" id="Fill-8" fill="#1A1918"></path>
            <path d="M322.8,33.892 L314.949,33.892 L314.949,24.621 L323.037,24.621 L323.037,8.096 L334.319,8.096 L334.319,24.621 L348.72,24.621 L348.72,33.892 L334.319,33.892 L334.319,61.472 C334.319,73.481 342.644,75.024 347.049,75.024 C348.72,75.024 349.787,74.789 349.787,74.789 L349.787,85.007 C349.787,85.007 348.231,85.244 345.742,85.244 C338.131,85.244 322.8,82.864 322.8,62.781 L322.8,33.892" id="Fill-9" fill="#1A1918"></path>
            <path d="M374.496,12.853 L384.83,12.853 L384.83,0.847 L374.496,0.847 L374.496,12.853 Z M374.256,37.1 C374.256,35.322 373.295,34.488 371.631,34.488 L366.765,34.488 L366.765,24.621 L378.052,24.621 C383.398,24.621 385.667,26.881 385.667,32.234 L385.667,72.292 C385.667,74.07 386.614,74.907 388.277,74.907 L393.154,74.907 L393.154,84.77 L381.856,84.77 C376.509,84.77 374.256,82.514 374.256,77.162 L374.256,37.1 L374.256,37.1 Z" id="Fill-10" fill="#1A1918"></path>
            <path d="M442.35,23.19 C449.597,23.19 463.986,26.168 463.986,36.387 L463.986,42.571 L453.517,42.571 L453.517,39.242 C453.517,34.962 446.751,33.058 442.35,33.058 C430.575,33.058 421.782,41.86 421.782,54.575 C421.782,68.248 431.769,75.978 442.944,75.978 C454.246,75.978 461.604,67.652 461.604,67.652 L466.591,75.861 C466.591,75.861 458.038,86.198 442.111,86.198 C423.208,86.198 410.014,72.767 410.014,54.695 C410.014,36.985 422.975,23.19 442.35,23.19" id="Fill-11" fill="#1A1918"></path>
            <path d="M487.854,13.326 C487.854,11.547 486.912,10.715 485.245,10.715 L480.372,10.715 L480.372,0.847 L491.775,0.847 C497.126,0.847 499.386,3.103 499.386,8.219 L499.386,31.633 C499.386,34.488 499.149,36.629 499.149,36.629 L499.386,36.629 C501.996,30.8 509.73,23.19 521.735,23.19 C535.88,23.19 542.304,30.918 542.304,46.26 L542.304,72.292 C542.304,74.07 543.257,74.907 544.914,74.907 L549.791,74.907 L549.791,84.77 L538.496,84.77 C533.154,84.77 530.889,82.514 530.889,77.162 L530.889,48.873 C530.889,40.429 529.109,33.771 519.486,33.771 C510.327,33.771 502.957,39.957 500.457,48.635 C499.622,51.012 499.386,53.742 499.386,56.596 L499.386,84.77 L487.854,84.77 L487.854,13.326" id="Fill-12" fill="#1A1918"></path>
            <path d="M572.231,33.892 L564.396,33.892 L564.396,24.621 L572.464,24.621 L572.464,8.096 L583.768,8.096 L583.768,24.621 L598.149,24.621 L598.149,33.892 L583.768,33.892 L583.768,61.472 C583.768,73.481 592.085,75.024 596.475,75.024 C598.149,75.024 599.215,74.789 599.215,74.789 L599.215,85.007 C599.215,85.007 597.677,85.244 595.173,85.244 C587.573,85.244 572.231,82.864 572.231,62.781 L572.231,33.892" id="Fill-13" fill="#1A1918"></path>
            <path d="M623.927,12.853 L634.275,12.853 L634.275,0.847 L623.927,0.847 L623.927,12.853 Z M623.687,37.1 C623.687,35.322 622.745,34.488 621.077,34.488 L616.204,34.488 L616.204,24.621 L627.494,24.621 C632.846,24.621 635.097,26.881 635.097,32.234 L635.097,72.292 C635.097,74.07 636.058,74.907 637.72,74.907 L642.588,74.907 L642.588,84.77 L631.304,84.77 C625.957,84.77 623.687,82.514 623.687,77.162 L623.687,37.1 L623.687,37.1 Z" id="Fill-14" fill="#1A1918"></path>
            <path d="M665.279,37.1 C665.279,35.322 664.332,34.488 662.668,34.488 L657.794,34.488 L657.794,24.621 L668.849,24.621 C673.962,24.621 676.469,26.881 676.469,31.28 L676.469,33.537 C676.469,35.442 676.221,36.985 676.221,36.985 L676.469,36.985 C678.836,31.753 685.972,23.19 699.046,23.19 C713.304,23.19 719.727,30.918 719.727,46.26 L719.727,72.292 C719.727,74.07 720.678,74.907 722.346,74.907 L727.215,74.907 L727.215,84.77 L715.803,84.77 C710.45,84.77 708.2,82.514 708.2,77.162 L708.2,48.873 C708.2,40.429 706.533,33.771 696.905,33.771 C687.634,33.771 680.252,39.838 677.879,48.519 C677.046,50.892 676.814,53.625 676.814,56.596 L676.814,84.77 L665.279,84.77 L665.279,37.1" id="Fill-15" fill="#1A1918"></path>
            <path d="M788.648,53.388 C788.648,37.699 780.923,33.184 771.653,33.184 C761.189,33.184 755.238,40.789 755.238,53.035 C755.238,65.513 761.786,74.07 772.596,74.07 C780.923,74.07 788.648,69.084 788.648,53.388 Z M769.859,23.19 C784.839,23.19 789.118,32.585 789.118,32.585 L789.353,32.585 L789.353,30.681 C789.353,27.119 791.257,24.621 796.007,24.621 L807.201,24.621 L807.201,34.488 L802.435,34.488 C800.884,34.488 799.814,35.322 799.814,36.866 L799.814,82.278 C799.814,102.128 784.728,109.734 769.509,109.734 C762.254,109.734 754.895,107.714 748.949,104.739 L752.861,95.471 C752.861,95.471 760.226,99.515 769.277,99.515 C779.718,99.515 788.285,94.873 788.285,82.75 L788.285,78.705 C788.285,76.807 788.519,74.907 788.519,74.907 L788.285,74.907 C784.728,80.727 779.14,84.054 770.346,84.054 C753.694,84.054 743.469,70.626 743.469,53.268 C743.469,36.028 753.101,23.19 769.859,23.19 L769.859,23.19 Z" id="Fill-16" fill="#1A1918"></path>
            <path d="M560.428,418.563 C560.428,418.563 527.724,450.784 492.131,450.784 C461.35,450.784 429.603,433.961 429.603,391.624 C429.603,358.443 450.765,331.986 485.884,331.986 C495.989,331.986 505.124,334.869 505.124,342.566 L505.124,355.555 L577.277,355.555 L577.277,321.404 C577.277,276.674 520.511,263.199 485.884,263.199 C424.492,263.199 383.635,290.68 362.642,327.964 C376.686,350.826 384.932,377.647 384.932,406.454 C384.932,429.171 379.747,450.627 370.731,469.933 C393.695,501.215 432.077,522.455 483.962,522.455 C554.665,522.455 593.628,474.352 593.628,474.352 L560.428,418.563" id="Fill-17" fill="#1A1918"></path>
            <path d="M84.168,406.454 C84.168,345.056 121.018,292.333 173.767,268.972 L113.517,268.972 L113.517,265.602 C113.517,244.44 139.011,241.558 155.367,241.558 C163.069,241.558 168.833,242.524 168.833,242.524 L168.833,172.293 C168.833,172.293 158.732,170.849 143.822,170.849 C103.897,170.849 30.306,181.916 30.306,263.199 L30.306,268.972 L0,268.972 L0,333.911 L30.306,333.911 L30.306,516.687 L132.508,516.687 C102.845,489.218 84.168,450.063 84.168,406.454" id="Fill-18" fill="#1A1918"></path>
            <path d="M160.805,401.216 L234.34,273.92 C187.396,273.935 146.199,298.379 122.667,335.209 L160.805,401.216" id="Fill-19" fill="#D9222A"></path>
            <path d="M202.198,340.129 L349.118,340.129 C327.137,302.179 286.877,276.131 240.355,274.072 L202.198,340.129" id="Fill-20" fill="#D9222A"></path>
            <path d="M349.231,472.61 C360.473,453.141 366.931,430.559 366.931,406.459 C366.931,384.436 361.531,363.677 352.023,345.406 L275.752,345.406 L349.231,472.61" id="Fill-21" fill="#D9222A"></path>
            <g id="Group-25" transform="translate(119.000000, 411.000000)">
                <mask id="mask-2" fill="white">
                    <use xlink:href="#path-1"></use>
                </mask>
                <g id="Clip-23"></g>
                <path d="M147.563,61.799 L0.66,61.799 C22.648,99.756 62.9,125.788 109.407,127.847 L147.563,61.799" id="Fill-22" fill="#D9222A" mask="url(#mask-2)"></path>
                <path d="M188.957,0.719 L153.691,61.799 L153.677,61.799 L115.425,128 C162.365,127.993 203.556,103.574 227.106,66.751 L188.957,0.719" id="Fill-24" fill="#D9222A" mask="url(#mask-2)"></path>
            </g>
            <path d="M192.999,467.519 L119.532,340.349 C108.305,359.812 101.846,382.378 101.846,406.459 C101.846,428.48 107.245,449.237 116.752,467.519 L192.999,467.519" id="Fill-26" fill="#D9222A"></path>
            <path d="M258.081,377.863 C258.081,390.988 247.452,401.608 234.347,401.608 C221.224,401.608 210.602,390.988 210.602,377.863 C210.602,364.76 221.224,354.118 234.347,354.118 C247.452,354.118 258.081,364.76 258.081,377.863" id="Fill-27" fill="#1A1918"></path>
            <path d="M258.701,396.92 C253.031,404.155 244.226,408.835 234.347,408.835 C224.457,408.835 215.647,404.155 209.986,396.92 C197.61,403.908 187.562,416.124 181.539,437.232 L199.037,467.519 L269.492,467.519 L287.109,437.004 C281.072,416.017 271.032,403.889 258.701,396.92" id="Fill-28" fill="#1A1918"></path>
        </g>
    </g>
</svg>