<?xml version="1.0" encoding="UTF-8"?>
<svg width="140px" height="38px" viewBox="0 0 140 38" version="1.1" xmlns="http://www.w3.org/2000/svg" xmlns:xlink="http://www.w3.org/1999/xlink">
    <title>logo</title>
    <g id="Page-1" stroke="none" stroke-width="1" fill="none" fill-rule="evenodd">
        <g id="logo" transform="translate(0.600000, 0.200000)" fill="#FFFFFF" fill-rule="nonzero">
            <path d="M25.9,28.9 L25.9,28.8 L9.3,28.8 L9.3,0 L0,0 L0,36.8 L18,36.8 L25.9,28.9 Z M43.7,22.3 L36.6,22.3 L40.1,9.8 L40.2,9.8 L43.7,22.3 L43.7,22.3 Z M57.5,36.8 L45,0 L35.8,0 L26,28.8 L26,36.8 L32.6,36.8 L35.1,28.1 L45.3,28.1 L47.8,36.8 L57.5,36.8 L57.5,36.8 Z M71.9,7.9 L82.6,7.9 L82.6,0 L51.8,0 L51.8,7.9 L62.5,7.9 L62.5,36.8 L71.8,36.8 L71.8,7.9 L71.9,7.9 L71.9,7.9 Z M84.5,36.8 L108,36.8 L108,28.8 L93.8,28.8 L93.8,21.8 L106.2,21.8 L106.2,14.3 L93.8,14.3 L93.8,7.8 L107.6,7.8 L107.6,0 L84.5,0 L84.5,36.8 Z M128.1,12.8 C128.1,16 126,18.1 121.6,18.1 L119.3,18.1 L119.3,7.8 L121.6,7.8 C126,7.8 128.1,9.6 128.1,12.8 M137.4,12 C137.4,4 131.5,0 121.1,0 L110,0 L110,36.8 L119.3,36.8 L119.3,24.8 L121.1,24.8 C121.7,24.8 122.4,24.8 123,24.7 L128.6,36.8 L139.2,36.8 L131.6,22.5 C135.3,20.4 137.4,16.9 137.4,12" id="Shape"></path>
        </g>
    </g>
</svg>